<svg width="64" height="64" viewBox="0 0 64 64" fill="none" xmlns="http://www.w3.org/2000/svg">
  <defs>
    <linearGradient id="bg" x1="10" y1="6" x2="54" y2="58" gradientUnits="userSpaceOnUse">
      <stop stop-color="#0F172A"/>
      <stop offset="0.55" stop-color="#0369A1"/>
      <stop offset="1" stop-color="#0F766E"/>
    </linearGradient>
    <linearGradient id="accent" x1="18" y1="18" x2="46" y2="46" gradientUnits="userSpaceOnUse">
      <stop stop-color="#67E8F9"/>
      <stop offset="1" stop-color="#FDE68A"/>
    </linearGradient>
  </defs>

  <rect x="4" y="4" width="56" height="56" rx="16" fill="url(#bg)"/>

  <rect x="18" y="34" width="5" height="12" rx="2.5" fill="url(#accent)"/>
  <rect x="29.5" y="26" width="5" height="20" rx="2.5" fill="url(#accent)"/>
  <rect x="41" y="19" width="5" height="27" rx="2.5" fill="url(#accent)"/>

  <path d="M18.742 18.55C18.31 19.284 17.93 20.714 19.24 23.792C20.551 26.869 22.6 29.846 25.097 32.342C27.593 34.839 30.57 36.888 33.648 38.198C36.725 39.509 38.156 39.129 38.89 38.697C39.457 38.363 40.26 37.546 40.842 36.708L42.148 34.824C42.483 34.34 42.412 33.687 41.98 33.285L37.984 29.563C37.552 29.16 36.894 29.133 36.432 29.498L34.416 31.091C34.079 31.357 33.624 31.422 33.225 31.261C32.17 30.835 30.411 29.833 28.653 28.075C26.895 26.317 25.894 24.558 25.467 23.503C25.306 23.104 25.372 22.649 25.638 22.312L27.231 20.296C27.595 19.834 27.569 19.176 27.166 18.744L23.443 14.748C23.041 14.316 22.388 14.245 21.904 14.58L20.02 15.886C19.183 16.468 19.366 17.488 18.742 18.55Z" fill="white" fill-opacity="0.96"/>
</svg>
